# ProBuilder 5.0.6
# https://unity3d.com/unity/features/worldbuilding/probuilder
# 19/01/2023 6:01:52 a. m.

mtllib ./InitTop.mtl
o InitTop

g InitTop
v 60.53821 0 23.6455
v 0.5291786 0 23.6455
v 60.53821 6.720627 23.6455
v 0.5291786 6.720627 23.6455
v 0.5291786 0 -90.35499
v 0.5291786 6.720627 -90.35499
v 60.53821 0 -90.35499
v 60.53821 6.720627 -90.35499

vt 60.53821 0
vt 0.5291786 0
vt 60.53821 6.720627
vt 0.5291786 6.720627
vt 23.6455 0
vt -90.35499 0
vt 23.6455 6.720627
vt -90.35499 6.720627
vt -0.5291786 0
vt -60.53821 0
vt -0.5291786 6.720627
vt -60.53821 6.720627
vt 90.35499 0
vt -23.6455 0
vt 90.35499 6.720627
vt -23.6455 6.720627
vt -60.53821 23.6455
vt -0.5291786 23.6455
vt -60.53821 -90.35499
vt -0.5291786 -90.35499
vt 60.53821 -90.35499
vt 0.5291786 -90.35499
vt 60.53821 23.6455
vt 0.5291786 23.6455

vn 0 0 1
vn -1 0 0
vn 0 0 -1
vn 1 0 0
vn 0 1 0
vn 0 -1 0

usemtl MapTexture
f 3/3/1 4/4/1 2/2/1 1/1/1
f 4/7/2 6/8/2 5/6/2 2/5/2
f 6/11/3 8/12/3 7/10/3 5/9/3
f 8/15/4 3/16/4 1/14/4 7/13/4
f 8/19/5 6/20/5 4/18/5 3/17/5
f 1/23/6 2/24/6 5/22/6 7/21/6

