mtllib materials.mtl
v 0.3328964 -0.1519032 -0.03153282
v 0.3328964 -0.1519032 0.04956305
v 0.3328964 0.5880968 0.04956293
v 0.3328964 0.5880968 -0.03153291
v 0.2518005 -0.1519032 -0.03153282
v 0.2518005 0.5880968 -0.03153291
v 0.2518005 0.5880968 0.04956293
v 0.2518005 -0.1519032 0.04956305
v -0.3176515 0.5086449 0.0490151
v -0.3176515 0.5886448 0.0490151
v 0.4923484 0.5886447 0.0490151
v 0.4923484 0.5086448 0.0490151
v -0.3176515 0.5086449 -0.03098491
v 0.4923484 0.5086448 -0.03098491
v 0.4923484 0.5886447 -0.03098491
v -0.3176515 0.5886448 -0.03098491
v -0.2376515 0.3286448 0.0490151
v -0.2376515 0.4086447 0.0490151
v 0.4123489 0.4086446 0.04901493
v 0.4123489 0.3286447 0.04901487
v -0.2376515 0.3286448 -0.03098491
v 0.4123489 0.3286447 -0.030985
v 0.4123489 0.4086446 -0.030985
v -0.2376515 0.4086447 -0.03098491
v -0.07765144 -0.1513552 -0.03098494
v -0.0776515 -0.1513553 0.0490151
v -0.0776515 0.5886447 0.04901522
v -0.07765144 0.5886447 -0.03098476
v -0.1576514 -0.1513552 -0.03098494
v -0.1576514 0.5886447 -0.03098476
v -0.1576515 0.5886447 0.04901516
v -0.1576515 -0.1513553 0.04901505
v -0.3176515 0.5886447 0.05901515
v -0.3176515 0.6186447 0.05901515
v 0.4923489 0.6186445 0.05901498
v 0.4923487 0.5886446 0.0590151
v -0.3176515 0.5886447 -0.04098484
v 0.4923487 0.5886446 -0.04098487
v 0.4923489 0.6186445 -0.04098493
v -0.3176515 0.6186447 -0.04098484
v 0.1223485 0.3886449 -0.03098446
v 0.1223485 0.3886448 0.04901558
v 0.1223485 0.5686447 0.0490157
v 0.1223485 0.5686447 -0.03098425
v 0.04234856 0.3886449 -0.03098449
v 0.04234856 0.5686447 -0.03098428
v 0.0423485 0.5686447 0.04901564
v 0.0423485 0.3886448 0.04901546
v 0.3423494 -0.1613552 -0.04098278
v 0.3423491 -0.1613554 0.056795
v 0.3423492 -0.04135561 0.0567953
v 0.3423495 -0.04135537 -0.04098237
v 0.2445717 -0.1613551 -0.04098299
v 0.2445718 -0.04135525 -0.0409826
v 0.2445715 -0.04135549 0.05679506
v 0.2445714 -0.1613553 0.05679464
v -0.06987274 -0.1613551 -0.03876019
v -0.06987303 -0.1613555 0.0590176
v -0.06987286 -0.04135567 0.05901796
v -0.06987262 -0.04135531 -0.03875971
v -0.1676505 -0.161355 -0.03876042
v -0.1676503 -0.04135519 -0.03875998
v -0.1676506 -0.04135555 0.05901772
v -0.1676507 -0.1613554 0.05901724
v 0.1623485 0.3586447 -0.04371226
v 0.1623485 0.3586447 -0.02098501
v 0.1623485 0.6086447 -0.02098483
v 0.1623485 0.6086447 -0.04371211
v 0.003257573 0.3586447 -0.04371235
v 0.003257573 0.6086447 -0.0437122
v 0.003257513 0.6086445 -0.02098492
v 0.003257513 0.3586447 -0.0209851
v 0.1472348 0.5848946 -0.05371213
v 0.1472348 0.3823947 -0.05371225
v 0.01837122 0.5848946 -0.05371219
v 0.01837122 0.3823947 -0.05371231
v 0.1472348 0.5848946 -0.04371214
v 0.1472348 0.3823947 -0.04371226
v 0.01837122 0.5848946 -0.0437122
v 0.01837122 0.3823947 -0.04371232
vn 1 1.017991E-08 1.156271E-15
vn -1 1.039048E-08 -1.156271E-15
vn 0 -1 1.139643E-08
vn 0 1 -2.778802E-07
vn 1.372289E-08 -1.107519E-07 -1
vn -8.135986E-09 1.761962E-07 1
vn 3.115974E-09 0 1
vn 1.339506E-09 0 -1
vn -1 -2.491287E-08 0
vn 1 -7.078066E-08 0
vn -1.47172E-07 -1 -1.002611E-08
vn 1.47172E-07 1 5.426879E-09
vn 2.353163E-07 -3.650786E-07 1
vn -9.221531E-08 -7.450728E-09 -1
vn -1 3.864981E-08 1.838801E-15
vn 1 -2.272484E-07 -1.998469E-14
vn -1.833988E-07 -1 -2.36411E-08
vn 1.833988E-07 1 4.226835E-08
vn 1 -1.309017E-09 4.542423E-07
vn -1 -1.522709E-09 -4.542424E-07
vn 1.646878E-13 -1 -7.198917E-07
vn -5.00547E-15 1 2.034735E-07
vn 8.501059E-08 2.439734E-07 -1
vn -4.499886E-07 -1.634266E-07 1
vn 7.361667E-08 1.932186E-06 1
vn -3.414086E-08 -9.387736E-07 -1
vn -1 -1.326205E-06 -2.980232E-07
vn 1 -6.854543E-06 3.002047E-13
vn -1.47172E-07 -1 5.213569E-08
vn 1.471719E-07 1 9.814748E-09
vn 1 3.026555E-09 6.176689E-07
vn -1 -8.200561E-09 -6.17669E-07
vn 1.728342E-13 -1 -6.209081E-07
vn -2.290132E-13 1 7.280102E-07
vn 4.655003E-07 1.112233E-06 -1
vn -1.017828E-06 -8.638797E-07 1
vn 1 -1.042891E-06 2.562136E-06
vn -1 1.010259E-06 -2.562136E-06
vn -1.04907E-06 -1 -2.766899E-06
vn 1.04907E-06 1 2.539229E-06
vn 2.397329E-06 3.247668E-06 -1
vn -3.000576E-06 -2.813049E-06 1
vn 1 -1.217737E-06 2.736981E-06
vn -1 1.185106E-06 -2.736982E-06
vn -1.223914E-06 -1 -3.291436E-06
vn 1.223915E-06 1 3.063766E-06
vn 2.572175E-06 3.772204E-06 -1
vn -3.175423E-06 -3.337585E-06 1
vn 1 -2.472235E-08 2.786674E-07
vn -1 9.143934E-09 -5.245366E-07
vn 7.148648E-14 -1 -3.111305E-07
vn -1.404963E-07 1 -4.562795E-07
vn 0.5518025 5.234275E-07 -0.8339749
vn -5.713688E-07 -6.809988E-07 1
vn 4.565066E-07 0.3880574 -0.9216353
vn -0.5518011 5.214681E-07 -0.8339758
vn 4.674277E-07 -0.3880547 -0.9216363
vn -1 4.08048E-09 -1.520072E-07
vn -1.119033E-13 -1 1.103511E-07
vn 1 -7.216108E-09 -2.205222E-07
vn -1.982133E-13 1 5.527282E-07
vn 4.603029E-07 5.889244E-07 -1
vt 0.08397061 0.04195266
vt 0.09056966 0.03723905
vt 0.1335813 0.09745534
vt 0.1269822 0.1021689
vt -0.08397061 0.04195266
vt -0.1269822 0.1021689
vt -0.1335813 0.09745534
vt -0.09056966 0.03723905
vt 0.03366774 -0.03638884
vt 0.03094019 -0.04402598
vt 0.03857733 -0.04675353
vt 0.04130488 -0.03911639
vt -0.03366777 -0.03638884
vt -0.0413049 -0.03911639
vt -0.03857736 -0.04675353
vt -0.03094022 -0.04402598
vt -0.08444985 0.01657141
vt -0.1506375 0.04966522
vt -0.1542642 0.04241178
vt -0.08807657 0.009317971
vt 0.08444984 0.01657141
vt 0.08807656 0.009317971
vt 0.1542642 0.04241178
vt 0.1506375 0.04966522
vt 0.1726245 -0.01207476
vt 0.1797799 -0.008497057
vt 0.1435556 0.06395154
vt 0.1364002 0.06037384
vt -0.1726245 -0.01207476
vt -0.1364002 0.06037384
vt -0.1435556 0.06395154
vt -0.1797799 -0.008497056
vt -0.1289186 0.09102191
vt -0.1224088 0.09567182
vt -0.1270587 0.1021817
vt -0.1335686 0.09753177
vt 0.1289186 0.09102191
vt 0.1335685 0.09753177
vt 0.1270587 0.1021817
vt 0.1224088 0.09567182
vt 0.01937296 -0.1003628
vt 0.04661621 -0.02408171
vt 0.03908227 -0.02139102
vt 0.01183903 -0.09767211
vt -0.01937296 -0.1003628
vt -0.01183903 -0.09767212
vt -0.03908227 -0.02139102
vt -0.04661621 -0.02408171
vt 0.1529471 -0.01296922
vt 0.1601025 -0.009391511
vt 0.1310336 0.0487463
vt 0.1238782 0.04516859
vt -0.1529471 -0.01296919
vt -0.1238781 0.04516861
vt -0.1310336 0.04874631
vt -0.1601025 -0.009391486
vt -0.1184563 0.07637471
vt -0.1119465 0.08102462
vt -0.1165964 0.08753447
vt -0.1231062 0.08288456
vt 0.1184563 0.07637472
vt 0.1231062 0.08288459
vt 0.1165963 0.08753449
vt 0.1119464 0.08102462
vt 0.02206365 -0.09282886
vt 0.04392551 -0.03161559
vt 0.03639159 -0.02892491
vt 0.01452972 -0.09013817
vt -0.02206365 -0.09282886
vt -0.01452971 -0.09013817
vt -0.03639159 -0.02892491
vt -0.04392552 -0.0316156
vt 0.08404709 0.04196534
vt 0.09055696 0.03731542
vt 0.1335686 0.09753166
vt 0.1270588 0.1021816
vt -0.08404709 0.04196534
vt -0.1270588 0.1021816
vt -0.1335686 0.09753167
vt -0.09055696 0.03731542
vt 0.01991103 -0.07507026
vt 0.01722034 -0.08260419
vt 0.02475427 -0.08529489
vt 0.02744497 -0.07776096
vt -0.01991109 -0.07507028
vt -0.02744502 -0.07776097
vt -0.02475432 -0.0852949
vt -0.0172204 -0.08260421
vt -0.1028591 -0.0201246
vt -0.1690467 0.0129692
vt -0.1726244 0.005813781
vt -0.1064368 -0.02728002
vt 0.1028591 -0.02012459
vt 0.1064368 -0.02728
vt 0.1726244 0.005813801
vt 0.1690467 0.01296922
vt 0.1797798 -0.008497004
vt 0.182463 -0.007155369
vt 0.1462387 0.06529325
vt 0.1435554 0.06395158
vt -0.1797798 -0.008497027
vt -0.1435555 0.06395157
vt -0.1462388 0.06529324
vt -0.1824631 -0.007155386
vt -0.1343825 0.09695037
vt -0.1262452 0.1027628
vt -0.1279889 0.105204
vt -0.1361263 0.09939156
vt 0.1343816 0.09695135
vt 0.1361253 0.09939257
vt 0.1279879 0.1052049
vt 0.1262442 0.1027637
vt 0.02031473 -0.1006991
vt 0.04755797 -0.02441803
vt 0.03814056 -0.02105467
vt 0.01089731 -0.09733577
vt -0.02031471 -0.1006991
vt -0.01089729 -0.09733577
vt -0.03814055 -0.02105464
vt -0.04755796 -0.024418
vt 0.115434 0.08590688
vt 0.1219439 0.08125695
vt 0.1324062 0.09590413
vt 0.1258963 0.100554
vt -0.115434 0.08590688
vt -0.1258963 0.100554
vt -0.1324062 0.09590413
vt -0.1219439 0.08125696
vt 0.02663779 -0.05623543
vt 0.02394709 -0.06376936
vt 0.03148102 -0.06646006
vt 0.03417172 -0.05892614
vt -0.02663778 -0.05623543
vt -0.03417171 -0.05892613
vt -0.03148101 -0.06646006
vt -0.02394708 -0.06376936
vt -0.142214 0.02191348
vt -0.1583136 0.02996332
vt -0.1618914 0.0228079
vt -0.1457917 0.01475807
vt 0.1422139 0.02191352
vt 0.1457916 0.0147581
vt 0.1618913 0.02280794
vt 0.1583136 0.02996336
vt 0.08265238 0.04173254
vt 0.09060885 0.03604928
vt 0.09758375 0.04581403
vt 0.08962728 0.05149729
vt -0.08265239 0.04173253
vt -0.0896273 0.05149728
vt -0.09758376 0.04581403
vt -0.09060886 0.03604928
vt 0.03309543 -0.03518083
vt 0.02980678 -0.04438895
vt 0.0390149 -0.04767761
vt 0.04230357 -0.03846949
vt -0.03309547 -0.03518083
vt -0.04230359 -0.03846949
vt -0.03901493 -0.04767761
vt -0.02980681 -0.04438896
vt -0.08318178 0.0169943
vt -0.09391489 0.02236087
vt -0.09828765 0.01361536
vt -0.08755454 0.008248802
vt 0.08318175 0.01699434
vt 0.08755452 0.008248838
vt 0.09828763 0.0136154
vt 0.09391487 0.0223609
vt 0.08283331 0.04160323
vt 0.09078977 0.03591997
vt 0.09776467 0.04568472
vt 0.08980821 0.05136798
vt -0.08283331 0.04160323
vt -0.08980822 0.05136798
vt -0.09776469 0.04568472
vt -0.09078978 0.03591997
vt 0.0194401 -0.07407625
vt 0.01615144 -0.08328437
vt 0.02535956 -0.08657303
vt 0.02864823 -0.07736491
vt -0.01944013 -0.07407626
vt -0.02864825 -0.07736491
vt -0.0253596 -0.08657304
vt -0.01615147 -0.08328439
vt -0.1016169 -0.01987597
vt -0.11235 -0.01450941
vt -0.1167228 -0.02325491
vt -0.1059897 -0.02862147
vt 0.1016169 -0.01987593
vt 0.1059896 -0.02862143
vt 0.1167227 -0.02325487
vt 0.11235 -0.01450936
vt 0.1126546 0.08420552
vt 0.114504 0.08288452
vt 0.1290349 0.1032278
vt 0.1271855 0.1045488
vt -0.1126546 0.08420547
vt -0.1271856 0.1045488
vt -0.129035 0.1032278
vt -0.114504 0.08288448
vt 0.02678455 -0.0520404
vt 0.02143374 -0.06702266
vt 0.02357405 -0.06778707
vt 0.02892487 -0.05280481
vt -0.0267847 -0.05204042
vt -0.02892502 -0.05280482
vt -0.02357421 -0.06778707
vt -0.02143389 -0.06702267
vt -0.1114411 0.07505048
vt -0.1311054 0.09048793
vt -0.1303564 0.08759591
vt -0.1144283 0.07509159
vt 0.1377418 0.02414955
vt 0.1448566 0.009920022
vt 0.1672172 0.02110035
vt 0.1601025 0.03532989
vt -0.1675273 0.01195628
vt -0.1724065 -0.003186113
vt -0.1694902 -0.002537926
vt -0.165538 0.009727406
vt -0.173698 0.006210544
vt -0.1512035 -0.004698022
vt -0.1525497 -0.002031086
vt -0.1707703 0.006804847
vt -0.1204501 0.007015286
vt -0.1122709 0.02066077
vt -0.1152582 0.02068932
vt -0.1218834 0.009636477
vt -0.1132212 0.0867194
vt -0.1249913 0.1031975
vt -0.1258051 0.1026163
vt -0.114035 0.08613817
vt 0.02533456 -0.0531274
vt 0.0210004 -0.06526302
vt 0.02194214 -0.06559936
vt 0.0262763 -0.05346373
vt 0.1249913 0.1031976
vt 0.1132212 0.08671946
vt 0.1140349 0.08613823
vt 0.125805 0.1026163
vt -0.02100028 -0.06526299
vt -0.02533444 -0.05312737
vt -0.02627619 -0.05346371
vt -0.02194202 -0.06559933
vt -0.140542 0.02385987
vt -0.1586541 0.03291594
vt -0.1644171 0.02139003
vt -0.1463049 0.01233396
o group1199456502
g mesh1199456502
usemtl mat8
f 4/4/1 3/3/1 2/2/1 1/1/1
f 8/8/2 7/7/2 6/6/2 5/5/2
f 2/12/3 8/11/3 5/10/3 1/9/3
f 6/16/4 7/15/4 3/14/4 4/13/4
f 5/20/5 6/19/5 4/18/5 1/17/5
f 3/24/6 7/23/6 8/22/6 2/21/6
o group1909196507
g mesh1909196507
usemtl mat8
f 12/28/7 11/27/7 10/26/7 9/25/7
f 16/32/8 15/31/8 14/30/8 13/29/8
f 10/36/9 16/35/9 13/34/9 9/33/9
f 14/40/10 15/39/10 11/38/10 12/37/10
f 13/44/11 14/43/11 12/42/11 9/41/11
f 11/48/12 15/47/12 16/46/12 10/45/12
o group196782659
g mesh196782659
usemtl mat8
f 20/52/13 19/51/13 18/50/13 17/49/13
f 24/56/14 23/55/14 22/54/14 21/53/14
f 18/60/15 24/59/15 21/58/15 17/57/15
f 22/64/16 23/63/16 19/62/16 20/61/16
f 21/68/17 22/67/17 20/66/17 17/65/17
f 19/72/18 23/71/18 24/70/18 18/69/18
o group2016123193
g mesh2016123193
usemtl mat8
f 28/76/19 27/75/19 26/74/19 25/73/19
f 32/80/20 31/79/20 30/78/20 29/77/20
f 26/84/21 32/83/21 29/82/21 25/81/21
f 30/88/22 31/87/22 27/86/22 28/85/22
f 29/92/23 30/91/23 28/90/23 25/89/23
f 27/96/24 31/95/24 32/94/24 26/93/24
o group802804228
g mesh802804228
usemtl mat23
f 36/100/25 35/99/25 34/98/25 33/97/25
f 40/104/26 39/103/26 38/102/26 37/101/26
f 34/108/27 40/107/27 37/106/27 33/105/27
f 38/112/28 39/111/28 35/110/28 36/109/28
f 37/116/29 38/115/29 36/114/29 33/113/29
f 35/120/30 39/119/30 40/118/30 34/117/30
o group16174133
g mesh16174133
usemtl mat8
f 44/124/31 43/123/31 42/122/31 41/121/31
f 48/128/32 47/127/32 46/126/32 45/125/32
f 42/132/33 48/131/33 45/130/33 41/129/33
f 46/136/34 47/135/34 43/134/34 44/133/34
f 45/140/35 46/139/35 44/138/35 41/137/35
f 43/144/36 47/143/36 48/142/36 42/141/36
o group695373010
g mesh695373010
usemtl mat23
f 52/148/37 51/147/37 50/146/37 49/145/37
f 56/152/38 55/151/38 54/150/38 53/149/38
f 50/156/39 56/155/39 53/154/39 49/153/39
f 54/160/40 55/159/40 51/158/40 52/157/40
f 53/164/41 54/163/41 52/162/41 49/161/41
f 51/168/42 55/167/42 56/166/42 50/165/42
o group494822094
g mesh494822094
usemtl mat23
f 60/172/43 59/171/43 58/170/43 57/169/43
f 64/176/44 63/175/44 62/174/44 61/173/44
f 58/180/45 64/179/45 61/178/45 57/177/45
f 62/184/46 63/183/46 59/182/46 60/181/46
f 61/188/47 62/187/47 60/186/47 57/185/47
f 59/192/48 63/191/48 64/190/48 58/189/48
o group231719158
g mesh231719158
usemtl mat12
f 68/196/49 67/195/49 66/194/49 65/193/49
f 72/200/50 71/199/50 70/198/50 69/197/50
f 66/204/51 72/203/51 69/202/51 65/201/51
f 70/208/52 71/207/52 67/206/52 68/205/52
f 74/212/53 73/211/53 68/210/53 65/209/53
f 67/216/54 71/215/54 72/214/54 66/213/54
f 73/220/55 75/219/55 70/218/55 68/217/55
f 75/224/56 76/223/56 69/222/56 70/221/56
f 76/228/57 74/227/57 65/226/57 69/225/57
f 78/232/58 77/231/58 73/230/58 74/229/58
f 77/236/59 79/235/59 75/234/59 73/233/59
f 79/240/60 80/239/60 76/238/60 75/237/60
f 80/244/61 78/243/61 74/242/61 76/241/61
usemtl mat21
f 80/248/62 79/247/62 77/246/62 78/245/62
